<?xml version="1.0" standalone="no"?>
<!DOCTYPE svg PUBLIC "-//W3C//DTD SVG 20010904//EN"
 "http://www.w3.org/TR/2001/REC-SVG-20010904/DTD/svg10.dtd">
<svg version="1.0" xmlns="http://www.w3.org/2000/svg"
 width="175.000000pt" height="175.000000pt" viewBox="0 0 175.000000 175.000000"
 preserveAspectRatio="xMidYMid meet">
<metadata>
Created by potrace 1.14, written by Peter Selinger 2001-2017
</metadata>
<g transform="translate(0.000000,175.000000) scale(0.100000,-0.100000)"
fill="#000000" stroke="none">
<path d="M659 1603 c0 -5 -2 -15 -4 -24 -1 -9 1 -23 6 -30 8 -12 10 -12 18 0
7 11 9 11 14 0 8 -21 26 9 21 34 -5 28 -14 34 -24 17 -7 -10 -10 -11 -10 -2 0
13 -19 17 -21 5z"/>
<path d="M739 1603 c0 -5 -2 -15 -4 -24 -1 -9 1 -23 6 -30 8 -12 10 -12 18 0
7 11 9 11 14 0 8 -21 26 9 21 34 -5 28 -14 34 -24 17 -7 -10 -10 -11 -10 -2 0
13 -19 17 -21 5z"/>
<path d="M819 1603 c0 -5 -2 -15 -4 -24 -1 -9 1 -23 6 -30 8 -12 10 -12 18 0
7 11 9 11 14 0 8 -21 26 9 21 34 -5 28 -14 34 -24 17 -7 -10 -10 -11 -10 -2 0
13 -19 17 -21 5z"/>
<path d="M899 1603 c0 -5 -2 -15 -4 -24 -1 -9 1 -23 6 -30 8 -12 10 -12 18 0
7 11 9 11 14 0 8 -21 26 9 21 34 -5 28 -14 34 -24 17 -7 -10 -10 -11 -10 -2 0
13 -19 17 -21 5z"/>
<path d="M970 1590 c0 -5 5 -10 10 -10 6 0 10 5 10 10 0 6 -4 10 -10 10 -5 0
-10 -4 -10 -10z"/>
<path d="M995 1570 c-16 -16 -24 -30 -19 -30 6 0 23 14 39 30 16 17 24 30 19
30 -6 0 -23 -13 -39 -30z"/>
<path d="M1020 1550 c0 -5 5 -10 10 -10 6 0 10 5 10 10 0 6 -4 10 -10 10 -5 0
-10 -4 -10 -10z"/>
<path d="M579 1523 c0 -5 -2 -15 -4 -24 -1 -9 1 -23 6 -30 8 -12 10 -12 18 0
7 11 9 11 14 0 8 -21 26 9 21 34 -5 28 -14 34 -24 17 -7 -10 -10 -11 -10 -2 0
13 -19 17 -21 5z"/>
<path d="M659 1523 c0 -5 -2 -15 -4 -24 -1 -9 1 -23 6 -30 8 -12 10 -12 18 0
7 11 9 11 14 0 8 -21 26 9 21 34 -5 28 -14 34 -24 17 -7 -10 -10 -11 -10 -2 0
13 -19 17 -21 5z"/>
<path d="M739 1523 c0 -5 -2 -15 -4 -24 -1 -9 1 -23 6 -30 8 -12 10 -12 18 0
7 11 9 11 14 0 8 -21 26 9 21 34 -5 28 -14 34 -24 17 -7 -10 -10 -11 -10 -2 0
13 -19 17 -21 5z"/>
<path d="M819 1523 c0 -5 -2 -15 -4 -24 -1 -9 1 -23 6 -30 8 -12 10 -12 18 0
7 11 9 11 14 0 8 -21 26 9 21 34 -5 28 -14 34 -24 17 -7 -10 -10 -11 -10 -2 0
13 -19 17 -21 5z"/>
<path d="M899 1523 c0 -5 -2 -15 -4 -24 -1 -9 1 -23 6 -30 8 -12 10 -12 18 0
7 11 9 11 14 0 8 -21 26 9 21 34 -5 28 -14 34 -24 17 -7 -10 -10 -11 -10 -2 0
13 -19 17 -21 5z"/>
<path d="M979 1523 c0 -5 -2 -15 -4 -24 -1 -9 1 -23 6 -30 8 -12 10 -12 18 0
7 11 9 11 14 0 8 -21 26 9 21 34 -5 28 -14 34 -24 17 -7 -10 -10 -11 -10 -2 0
13 -19 17 -21 5z"/>
<path d="M1050 1510 c0 -5 5 -10 10 -10 6 0 10 5 10 10 0 6 -4 10 -10 10 -5 0
-10 -4 -10 -10z"/>
<path d="M1075 1490 c-16 -16 -24 -30 -19 -30 6 0 23 14 39 30 16 17 24 30 19
30 -6 0 -23 -13 -39 -30z"/>
<path d="M1100 1470 c0 -5 5 -10 10 -10 6 0 10 5 10 10 0 6 -4 10 -10 10 -5 0
-10 -4 -10 -10z"/>
<path d="M579 1443 c0 -5 -2 -15 -4 -24 -1 -9 1 -23 6 -30 8 -12 10 -12 18 0
7 11 9 11 14 0 8 -21 26 9 21 34 -5 28 -14 34 -24 17 -7 -10 -10 -11 -10 -2 0
13 -19 17 -21 5z"/>
<path d="M659 1443 c0 -5 -2 -15 -4 -24 -1 -9 1 -23 6 -30 8 -12 10 -12 18 0
7 11 9 11 14 0 8 -21 26 9 21 34 -5 28 -14 34 -24 17 -7 -10 -10 -11 -10 -2 0
13 -19 17 -21 5z"/>
<path d="M739 1443 c0 -5 -2 -15 -4 -24 -1 -9 1 -23 6 -30 8 -12 10 -12 18 0
7 11 9 11 14 0 8 -21 26 9 21 34 -5 28 -14 34 -24 17 -7 -10 -10 -11 -10 -2 0
13 -19 17 -21 5z"/>
<path d="M819 1443 c0 -5 -2 -15 -4 -24 -1 -9 1 -23 6 -30 8 -12 10 -12 18 0
7 11 9 11 14 0 8 -21 26 9 21 34 -5 28 -14 34 -24 17 -7 -10 -10 -11 -10 -2 0
13 -19 17 -21 5z"/>
<path d="M899 1443 c0 -5 -2 -15 -4 -24 -1 -9 1 -23 6 -30 8 -12 10 -12 18 0
7 11 9 11 14 0 8 -21 26 9 21 34 -5 28 -14 34 -24 17 -7 -10 -10 -11 -10 -2 0
13 -19 17 -21 5z"/>
<path d="M979 1443 c0 -5 -2 -15 -4 -24 -1 -9 1 -23 6 -30 8 -12 10 -12 18 0
7 11 9 11 14 0 8 -21 26 9 21 34 -5 28 -14 34 -24 17 -7 -10 -10 -11 -10 -2 0
13 -19 17 -21 5z"/>
<path d="M1059 1443 c0 -5 -2 -15 -4 -24 -1 -9 1 -23 6 -30 8 -12 10 -12 18 0
7 11 9 11 14 0 8 -21 26 9 21 34 -5 28 -14 34 -24 17 -7 -10 -10 -11 -10 -2 0
13 -19 17 -21 5z"/>
<path d="M1146 1429 c2 -4 -2 -10 -8 -12 -10 -4 -10 -6 0 -6 7 -1 11 -5 8 -9
-3 -5 8 -9 24 -9 16 0 27 4 24 8 -2 4 2 10 8 12 10 4 10 6 0 6 -7 1 -11 5 -8
9 3 5 -8 9 -24 9 -16 0 -27 -4 -24 -8z"/>
<path d="M579 1363 c0 -5 -2 -15 -4 -24 -1 -9 1 -23 6 -30 8 -12 10 -12 18 0
7 11 9 11 14 0 8 -21 26 9 21 34 -5 28 -14 34 -24 17 -7 -10 -10 -11 -10 -2 0
13 -19 17 -21 5z"/>
<path d="M659 1363 c0 -5 -2 -15 -4 -24 -1 -9 1 -23 6 -30 8 -12 10 -12 18 0
7 11 9 11 14 0 8 -21 26 9 21 34 -5 28 -14 34 -24 17 -7 -10 -10 -11 -10 -2 0
13 -19 17 -21 5z"/>
<path d="M739 1363 c0 -5 -2 -15 -4 -24 -1 -9 1 -23 6 -30 8 -12 10 -12 18 0
7 11 9 11 14 0 8 -21 26 9 21 34 -5 28 -14 34 -24 17 -7 -10 -10 -11 -10 -2 0
13 -19 17 -21 5z"/>
<path d="M819 1363 c0 -5 -2 -15 -4 -24 -1 -9 1 -23 6 -30 8 -12 10 -12 18 0
7 11 9 11 14 0 8 -21 26 9 21 34 -5 28 -14 34 -24 17 -7 -10 -10 -11 -10 -2 0
13 -19 17 -21 5z"/>
<path d="M899 1363 c0 -5 -2 -15 -4 -24 -1 -9 1 -23 6 -30 8 -12 10 -12 18 0
7 11 9 11 14 0 8 -21 26 9 21 34 -5 28 -14 34 -24 17 -7 -10 -10 -11 -10 -2 0
13 -19 17 -21 5z"/>
<path d="M979 1363 c0 -5 -2 -15 -4 -24 -1 -9 1 -23 6 -30 8 -12 10 -12 18 0
7 11 9 11 14 0 8 -21 26 9 21 34 -5 28 -14 34 -24 17 -7 -10 -10 -11 -10 -2 0
13 -19 17 -21 5z"/>
<path d="M1059 1363 c0 -5 -2 -15 -4 -24 -1 -9 1 -23 6 -30 8 -12 10 -12 18 0
7 11 9 11 14 0 8 -21 26 9 21 34 -5 28 -14 34 -24 17 -7 -10 -10 -11 -10 -2 0
13 -19 17 -21 5z"/>
<path d="M1146 1349 c2 -4 -2 -10 -8 -12 -10 -4 -10 -6 0 -6 7 -1 11 -5 8 -9
-3 -5 8 -9 24 -9 16 0 27 4 24 8 -2 4 2 10 8 12 10 4 10 6 0 6 -7 1 -11 5 -8
9 3 5 -8 9 -24 9 -16 0 -27 -4 -24 -8z"/>
<path d="M499 1283 c0 -5 -2 -15 -4 -24 -1 -9 1 -23 6 -30 8 -12 10 -12 18 0
7 11 9 11 14 0 8 -21 26 9 21 34 -5 28 -14 34 -24 17 -7 -10 -10 -11 -10 -2 0
13 -19 17 -21 5z"/>
<path d="M579 1283 c0 -5 -2 -15 -4 -24 -1 -9 1 -23 6 -30 8 -12 10 -12 18 0
7 11 9 11 14 0 8 -21 26 9 21 34 -5 28 -14 34 -24 17 -7 -10 -10 -11 -10 -2 0
13 -19 17 -21 5z"/>
<path d="M659 1283 c0 -5 -2 -15 -4 -24 -1 -9 1 -23 6 -30 8 -12 10 -12 18 0
7 11 9 11 14 0 8 -21 26 9 21 34 -5 28 -14 34 -24 17 -7 -10 -10 -11 -10 -2 0
13 -19 17 -21 5z"/>
<path d="M739 1283 c0 -5 -2 -15 -4 -24 -1 -9 1 -23 6 -30 8 -12 10 -12 18 0
7 11 9 11 14 0 8 -21 26 9 21 34 -5 28 -14 34 -24 17 -7 -10 -10 -11 -10 -2 0
13 -19 17 -21 5z"/>
<path d="M814 1276 c-11 -28 0 -51 26 -53 15 -1 18 0 8 3 -11 3 -18 15 -18 30
0 16 5 24 18 23 10 0 12 -3 5 -6 -21 -8 -15 -33 8 -33 15 0 20 5 17 23 -4 27
-55 38 -64 13z"/>
<path d="M899 1283 c0 -5 -2 -15 -4 -24 -1 -9 1 -23 6 -30 8 -12 10 -12 18 0
7 11 9 11 14 0 8 -21 26 9 21 34 -5 28 -14 34 -24 17 -7 -10 -10 -11 -10 -2 0
13 -19 17 -21 5z"/>
<path d="M979 1283 c0 -5 -2 -15 -4 -24 -1 -9 1 -23 6 -30 8 -12 10 -12 18 0
7 11 9 11 14 0 8 -21 26 9 21 34 -5 28 -14 34 -24 17 -7 -10 -10 -11 -10 -2 0
13 -19 17 -21 5z"/>
<path d="M1059 1283 c0 -5 -2 -15 -4 -24 -1 -9 1 -23 6 -30 8 -12 10 -12 18 0
7 11 9 11 14 0 8 -21 26 9 21 34 -5 28 -14 34 -24 17 -7 -10 -10 -11 -10 -2 0
13 -19 17 -21 5z"/>
<path d="M1130 1270 c0 -5 5 -10 10 -10 6 0 10 5 10 10 0 6 -4 10 -10 10 -5 0
-10 -4 -10 -10z"/>
<path d="M1155 1250 c-16 -16 -24 -30 -19 -30 6 0 23 14 39 30 16 17 24 30 19
30 -6 0 -23 -13 -39 -30z"/>
<path d="M1180 1230 c0 -5 5 -10 10 -10 6 0 10 5 10 10 0 6 -4 10 -10 10 -5 0
-10 -4 -10 -10z"/>
<path d="M499 1203 c0 -5 -2 -15 -4 -24 -1 -9 1 -23 6 -30 8 -12 10 -12 18 0
7 11 9 11 14 0 8 -21 26 9 21 34 -5 28 -14 34 -24 17 -7 -10 -10 -11 -10 -2 0
13 -19 17 -21 5z"/>
<path d="M579 1203 c0 -5 -2 -15 -4 -24 -1 -9 1 -23 6 -30 8 -12 10 -12 18 0
7 11 9 11 14 0 8 -21 26 9 21 34 -5 28 -14 34 -24 17 -7 -10 -10 -11 -10 -2 0
13 -19 17 -21 5z"/>
<path d="M659 1203 c0 -5 -2 -15 -4 -24 -1 -9 1 -23 6 -30 8 -12 10 -12 18 0
7 11 9 11 14 0 8 -21 26 9 21 34 -5 28 -14 34 -24 17 -7 -10 -10 -11 -10 -2 0
13 -19 17 -21 5z"/>
<path d="M739 1203 c0 -5 -2 -15 -4 -24 -1 -9 1 -23 6 -30 8 -12 10 -12 18 0
7 11 9 11 14 0 8 -21 26 9 21 34 -5 28 -14 34 -24 17 -7 -10 -10 -11 -10 -2 0
13 -19 17 -21 5z"/>
<path d="M899 1203 c0 -5 -2 -15 -4 -24 -1 -9 1 -23 6 -30 8 -12 10 -12 18 0
7 11 9 11 14 0 8 -21 26 9 21 34 -5 28 -14 34 -24 17 -7 -10 -10 -11 -10 -2 0
13 -19 17 -21 5z"/>
<path d="M979 1203 c0 -5 -2 -15 -4 -24 -1 -9 1 -23 6 -30 8 -12 10 -12 18 0
7 11 9 11 14 0 8 -21 26 9 21 34 -5 28 -14 34 -24 17 -7 -10 -10 -11 -10 -2 0
13 -19 17 -21 5z"/>
<path d="M1059 1203 c0 -5 -2 -15 -4 -24 -1 -9 1 -23 6 -30 8 -12 10 -12 18 0
7 11 9 11 14 0 8 -21 26 9 21 34 -5 28 -14 34 -24 17 -7 -10 -10 -11 -10 -2 0
13 -19 17 -21 5z"/>
<path d="M1139 1203 c0 -5 -2 -15 -4 -24 -1 -9 1 -23 6 -30 8 -12 10 -12 18 0
7 11 9 11 14 0 8 -21 26 9 21 34 -5 28 -14 34 -24 17 -7 -10 -10 -11 -10 -2 0
13 -19 17 -21 5z"/>
<path d="M826 1189 c2 -4 -2 -10 -8 -12 -10 -4 -10 -6 0 -6 7 -1 11 -5 8 -9
-3 -5 8 -9 24 -9 16 0 27 4 24 8 -2 4 2 10 8 12 10 4 10 6 0 6 -7 1 -11 5 -8
9 3 5 -8 9 -24 9 -16 0 -27 -4 -24 -8z"/>
<path d="M1226 1189 c2 -4 -2 -10 -8 -12 -10 -4 -10 -6 0 -6 7 -1 11 -5 8 -9
-3 -5 8 -9 24 -9 16 0 27 4 24 8 -2 4 2 10 8 12 10 4 10 6 0 6 -7 1 -11 5 -8
9 3 5 -8 9 -24 9 -16 0 -27 -4 -24 -8z"/>
<path d="M499 1123 c0 -5 -2 -15 -4 -24 -1 -9 1 -23 6 -30 8 -12 10 -12 18 0
7 11 9 11 14 0 8 -21 26 9 21 34 -5 28 -14 34 -24 17 -7 -10 -10 -11 -10 -2 0
13 -19 17 -21 5z"/>
<path d="M579 1123 c0 -5 -2 -15 -4 -24 -1 -9 1 -23 6 -30 8 -12 10 -12 18 0
7 11 9 11 14 0 8 -21 26 9 21 34 -5 28 -14 34 -24 17 -7 -10 -10 -11 -10 -2 0
13 -19 17 -21 5z"/>
<path d="M659 1123 c0 -5 -2 -15 -4 -24 -1 -9 1 -23 6 -30 8 -12 10 -12 18 0
7 11 9 11 14 0 8 -21 26 9 21 34 -5 28 -14 34 -24 17 -7 -10 -10 -11 -10 -2 0
13 -19 17 -21 5z"/>
<path d="M899 1123 c0 -5 -2 -15 -4 -24 -1 -9 1 -23 6 -30 8 -12 10 -12 18 0
7 11 9 11 14 0 8 -21 26 9 21 34 -5 28 -14 34 -24 17 -7 -10 -10 -11 -10 -2 0
13 -19 17 -21 5z"/>
<path d="M979 1123 c0 -5 -2 -15 -4 -24 -1 -9 1 -23 6 -30 8 -12 10 -12 18 0
7 11 9 11 14 0 8 -21 26 9 21 34 -5 28 -14 34 -24 17 -7 -10 -10 -11 -10 -2 0
13 -19 17 -21 5z"/>
<path d="M1059 1123 c0 -5 -2 -15 -4 -24 -1 -9 1 -23 6 -30 8 -12 10 -12 18 0
7 11 9 11 14 0 8 -21 26 9 21 34 -5 28 -14 34 -24 17 -7 -10 -10 -11 -10 -2 0
13 -19 17 -21 5z"/>
<path d="M1139 1123 c0 -5 -2 -15 -4 -24 -1 -9 1 -23 6 -30 8 -12 10 -12 18 0
7 11 9 11 14 0 8 -21 26 9 21 34 -5 28 -14 34 -24 17 -7 -10 -10 -11 -10 -2 0
13 -19 17 -21 5z"/>
<path d="M730 1110 c0 -5 5 -10 10 -10 6 0 10 5 10 10 0 6 -4 10 -10 10 -5 0
-10 -4 -10 -10z"/>
<path d="M755 1090 c-16 -16 -24 -30 -19 -30 6 0 23 14 39 30 16 17 24 30 19
30 -6 0 -23 -13 -39 -30z"/>
<path d="M826 1109 c2 -4 -2 -10 -8 -12 -10 -4 -10 -6 0 -6 7 -1 11 -5 8 -9
-3 -5 8 -9 24 -9 16 0 27 4 24 8 -2 4 2 10 8 12 10 4 10 6 0 6 -7 1 -11 5 -8
9 3 5 -8 9 -24 9 -16 0 -27 -4 -24 -8z"/>
<path d="M1226 1109 c2 -4 -2 -10 -8 -12 -10 -4 -10 -6 0 -6 7 -1 11 -5 8 -9
-3 -5 8 -9 24 -9 16 0 27 4 24 8 -2 4 2 10 8 12 10 4 10 6 0 6 -7 1 -11 5 -8
9 3 5 -8 9 -24 9 -16 0 -27 -4 -24 -8z"/>
<path d="M780 1070 c0 -5 5 -10 10 -10 6 0 10 5 10 10 0 6 -4 10 -10 10 -5 0
-10 -4 -10 -10z"/>
<path d="M414 1036 c-11 -28 0 -51 26 -53 15 -1 18 0 8 3 -11 3 -18 15 -18 30
0 16 5 24 18 23 10 0 12 -3 5 -6 -21 -8 -15 -33 8 -33 15 0 20 5 17 23 -4 27
-55 38 -64 13z"/>
<path d="M499 1043 c0 -5 -2 -15 -4 -24 -1 -9 1 -23 6 -30 8 -12 10 -12 18 0
7 11 9 11 14 0 8 -21 26 9 21 34 -5 28 -14 34 -24 17 -7 -10 -10 -11 -10 -2 0
13 -19 17 -21 5z"/>
<path d="M579 1043 c0 -5 -2 -15 -4 -24 -1 -9 1 -23 6 -30 8 -12 10 -12 18 0
7 11 9 11 14 0 8 -21 26 9 21 34 -5 28 -14 34 -24 17 -7 -10 -10 -11 -10 -2 0
13 -19 17 -21 5z"/>
<path d="M659 1043 c0 -5 -2 -15 -4 -24 -1 -9 1 -23 6 -30 8 -12 10 -12 18 0
7 11 9 11 14 0 8 -21 26 9 21 34 -5 28 -14 34 -24 17 -7 -10 -10 -11 -10 -2 0
13 -19 17 -21 5z"/>
<path d="M899 1043 c0 -5 -2 -15 -4 -24 -1 -9 1 -23 6 -30 8 -12 10 -12 18 0
7 11 9 11 14 0 8 -21 26 9 21 34 -5 28 -14 34 -24 17 -7 -10 -10 -11 -10 -2 0
13 -19 17 -21 5z"/>
<path d="M979 1043 c0 -5 -2 -15 -4 -24 -1 -9 1 -23 6 -30 8 -12 10 -12 18 0
7 11 9 11 14 0 8 -21 26 9 21 34 -5 28 -14 34 -24 17 -7 -10 -10 -11 -10 -2 0
13 -19 17 -21 5z"/>
<path d="M1059 1043 c0 -5 -2 -15 -4 -24 -1 -9 1 -23 6 -30 8 -12 10 -12 18 0
7 11 9 11 14 0 8 -21 26 9 21 34 -5 28 -14 34 -24 17 -7 -10 -10 -11 -10 -2 0
13 -19 17 -21 5z"/>
<path d="M1139 1043 c0 -5 -2 -15 -4 -24 -1 -9 1 -23 6 -30 8 -12 10 -12 18 0
7 11 9 11 14 0 8 -21 26 9 21 34 -5 28 -14 34 -24 17 -7 -10 -10 -11 -10 -2 0
13 -19 17 -21 5z"/>
<path d="M746 1029 c2 -4 -2 -10 -8 -12 -10 -4 -10 -6 0 -6 7 -1 11 -5 8 -9
-3 -5 8 -9 24 -9 16 0 27 4 24 9 -3 4 4 8 16 8 12 0 19 -4 16 -8 -3 -5 8 -9
24 -9 16 0 27 4 24 8 -2 4 2 10 8 12 10 4 10 6 0 6 -7 1 -11 5 -8 9 3 5 -8 9
-24 9 -16 0 -27 -4 -24 -9 3 -4 -4 -8 -16 -8 -12 0 -19 4 -16 8 3 5 -8 9 -24
9 -16 0 -27 -4 -24 -8z"/>
<path d="M1210 1030 c0 -5 5 -10 10 -10 6 0 10 5 10 10 0 6 -4 10 -10 10 -5 0
-10 -4 -10 -10z"/>
<path d="M1235 1010 c-16 -16 -24 -30 -19 -30 6 0 23 14 39 30 16 17 24 30 19
30 -6 0 -23 -13 -39 -30z"/>
<path d="M1260 990 c0 -5 5 -10 10 -10 6 0 10 5 10 10 0 6 -4 10 -10 10 -5 0
-10 -4 -10 -10z"/>
<path d="M419 963 c0 -5 -2 -15 -4 -24 -1 -9 1 -23 6 -30 8 -12 10 -12 18 0 7
11 9 11 14 0 8 -21 26 9 21 34 -5 28 -14 34 -24 17 -7 -10 -10 -11 -10 -2 0
13 -19 17 -21 5z"/>
<path d="M499 963 c0 -5 -2 -15 -4 -24 -1 -9 1 -23 6 -30 8 -12 10 -12 18 0 7
11 9 11 14 0 8 -21 26 9 21 34 -5 28 -14 34 -24 17 -7 -10 -10 -11 -10 -2 0
13 -19 17 -21 5z"/>
<path d="M579 963 c0 -5 -2 -15 -4 -24 -1 -9 1 -23 6 -30 8 -12 10 -12 18 0 7
11 9 11 14 0 8 -21 26 9 21 34 -5 28 -14 34 -24 17 -7 -10 -10 -11 -10 -2 0
13 -19 17 -21 5z"/>
<path d="M659 963 c0 -5 -2 -15 -4 -24 -1 -9 1 -23 6 -30 8 -12 10 -12 18 0 7
11 9 11 14 0 8 -21 26 9 21 34 -5 28 -14 34 -24 17 -7 -10 -10 -11 -10 -2 0
13 -19 17 -21 5z"/>
<path d="M979 963 c0 -5 -2 -15 -4 -24 -1 -9 1 -23 6 -30 8 -12 10 -12 18 0 7
11 9 11 14 0 8 -21 26 9 21 34 -5 28 -14 34 -24 17 -7 -10 -10 -11 -10 -2 0
13 -19 17 -21 5z"/>
<path d="M1059 963 c0 -5 -2 -15 -4 -24 -1 -9 1 -23 6 -30 8 -12 10 -12 18 0
7 11 9 11 14 0 8 -21 26 9 21 34 -5 28 -14 34 -24 17 -7 -10 -10 -11 -10 -2 0
13 -19 17 -21 5z"/>
<path d="M1139 963 c0 -5 -2 -15 -4 -24 -1 -9 1 -23 6 -30 8 -12 10 -12 18 0
7 11 9 11 14 0 8 -21 26 9 21 34 -5 28 -14 34 -24 17 -7 -10 -10 -11 -10 -2 0
13 -19 17 -21 5z"/>
<path d="M1214 956 c-11 -28 0 -51 26 -53 15 -1 18 0 8 3 -11 3 -18 15 -18 30
0 16 5 24 18 23 10 0 12 -3 5 -6 -21 -8 -15 -33 8 -33 15 0 20 5 17 23 -4 27
-55 38 -64 13z"/>
<path d="M746 949 c2 -4 -2 -10 -8 -12 -10 -4 -10 -6 0 -6 7 -1 11 -5 8 -9 -3
-5 8 -9 24 -9 16 0 27 4 24 9 -3 4 4 8 16 8 12 0 19 -4 16 -8 -3 -5 8 -9 24
-9 16 0 27 4 24 8 -2 4 2 10 8 12 10 4 10 6 0 6 -7 1 -11 5 -8 9 3 5 -8 9 -24
9 -16 0 -27 -4 -24 -9 3 -4 -4 -8 -16 -8 -12 0 -19 4 -16 8 3 5 -8 9 -24 9
-16 0 -27 -4 -24 -8z"/>
<path d="M1306 949 c2 -4 -2 -10 -8 -12 -10 -4 -10 -6 0 -6 7 -1 11 -5 8 -9
-3 -5 8 -9 24 -9 16 0 27 4 24 8 -2 4 2 10 8 12 10 4 10 6 0 6 -7 1 -11 5 -8
9 3 5 -8 9 -24 9 -16 0 -27 -4 -24 -8z"/>
<path d="M419 883 c0 -5 -2 -15 -4 -24 -1 -9 1 -23 6 -30 8 -12 10 -12 18 0 7
11 9 11 14 0 8 -21 26 9 21 34 -5 28 -14 34 -24 17 -7 -10 -10 -11 -10 -2 0
13 -19 17 -21 5z"/>
<path d="M499 883 c0 -5 -2 -15 -4 -24 -1 -9 1 -23 6 -30 8 -12 10 -12 18 0 7
11 9 11 14 0 8 -21 26 9 21 34 -5 28 -14 34 -24 17 -7 -10 -10 -11 -10 -2 0
13 -19 17 -21 5z"/>
<path d="M579 883 c0 -5 -2 -15 -4 -24 -1 -9 1 -23 6 -30 8 -12 10 -12 18 0 7
11 9 11 14 0 8 -21 26 9 21 34 -5 28 -14 34 -24 17 -7 -10 -10 -11 -10 -2 0
13 -19 17 -21 5z"/>
<path d="M659 883 c0 -5 -2 -15 -4 -24 -1 -9 1 -23 6 -30 8 -12 10 -12 18 0 7
11 9 11 14 0 8 -21 26 9 21 34 -5 28 -14 34 -24 17 -7 -10 -10 -11 -10 -2 0
13 -19 17 -21 5z"/>
<path d="M734 876 c-11 -28 0 -51 26 -53 15 -1 18 0 8 3 -11 3 -18 15 -18 30
0 16 5 24 18 23 10 0 12 -3 5 -6 -21 -8 -15 -33 8 -33 15 0 20 5 17 23 -4 27
-55 38 -64 13z"/>
<path d="M814 876 c-11 -28 0 -51 26 -53 15 -1 18 0 8 3 -11 3 -18 15 -18 30
0 16 5 24 18 23 10 0 12 -3 5 -6 -21 -8 -15 -33 8 -33 15 0 20 5 17 23 -4 27
-55 38 -64 13z"/>
<path d="M979 883 c0 -5 -2 -15 -4 -24 -1 -9 1 -23 6 -30 8 -12 10 -12 18 0 7
11 9 11 14 0 8 -21 26 9 21 34 -5 28 -14 34 -24 17 -7 -10 -10 -11 -10 -2 0
13 -19 17 -21 5z"/>
<path d="M1059 883 c0 -5 -2 -15 -4 -24 -1 -9 1 -23 6 -30 8 -12 10 -12 18 0
7 11 9 11 14 0 8 -21 26 9 21 34 -5 28 -14 34 -24 17 -7 -10 -10 -11 -10 -2 0
13 -19 17 -21 5z"/>
<path d="M1139 883 c0 -5 -2 -15 -4 -24 -1 -9 1 -23 6 -30 8 -12 10 -12 18 0
7 11 9 11 14 0 8 -21 26 9 21 34 -5 28 -14 34 -24 17 -7 -10 -10 -11 -10 -2 0
13 -19 17 -21 5z"/>
<path d="M1219 883 c0 -5 -2 -15 -4 -24 -1 -9 1 -23 6 -30 8 -12 10 -12 18 0
7 11 9 11 14 0 8 -21 26 9 21 34 -5 28 -14 34 -24 17 -7 -10 -10 -11 -10 -2 0
13 -19 17 -21 5z"/>
<path d="M1306 869 c2 -4 -2 -10 -8 -12 -10 -4 -10 -6 0 -6 7 -1 11 -5 8 -9
-3 -5 8 -9 24 -9 16 0 27 4 24 8 -2 4 2 10 8 12 10 4 10 6 0 6 -7 1 -11 5 -8
9 3 5 -8 9 -24 9 -16 0 -27 -4 -24 -8z"/>
<path d="M419 803 c0 -5 -2 -15 -4 -24 -1 -9 1 -23 6 -30 8 -12 10 -12 18 0 7
11 9 11 14 0 8 -21 26 9 21 34 -5 28 -14 34 -24 17 -7 -10 -10 -11 -10 -2 0
13 -19 17 -21 5z"/>
<path d="M499 803 c0 -5 -2 -15 -4 -24 -1 -9 1 -23 6 -30 8 -12 10 -12 18 0 7
11 9 11 14 0 8 -21 26 9 21 34 -5 28 -14 34 -24 17 -7 -10 -10 -11 -10 -2 0
13 -19 17 -21 5z"/>
<path d="M579 803 c0 -5 -2 -15 -4 -24 -1 -9 1 -23 6 -30 8 -12 10 -12 18 0 7
11 9 11 14 0 8 -21 26 9 21 34 -5 28 -14 34 -24 17 -7 -10 -10 -11 -10 -2 0
13 -19 17 -21 5z"/>
<path d="M659 803 c0 -5 -2 -15 -4 -24 -1 -9 1 -23 6 -30 8 -12 10 -12 18 0 7
11 9 11 14 0 8 -21 26 9 21 34 -5 28 -14 34 -24 17 -7 -10 -10 -11 -10 -2 0
13 -19 17 -21 5z"/>
<path d="M739 803 c0 -5 -2 -15 -4 -24 -1 -9 1 -23 6 -30 8 -12 10 -12 18 0 7
11 9 11 14 0 8 -21 26 9 21 34 -5 28 -14 34 -24 17 -7 -10 -10 -11 -10 -2 0
13 -19 17 -21 5z"/>
<path d="M819 803 c0 -5 -2 -15 -4 -24 -1 -9 1 -23 6 -30 8 -12 10 -12 18 0 7
11 9 11 14 0 8 -21 26 9 21 34 -5 28 -14 34 -24 17 -7 -10 -10 -11 -10 -2 0
13 -19 17 -21 5z"/>
<path d="M899 803 c0 -5 -2 -15 -4 -24 -1 -9 1 -23 6 -30 8 -12 10 -12 18 0 7
11 9 11 14 0 8 -21 26 9 21 34 -5 28 -14 34 -24 17 -7 -10 -10 -11 -10 -2 0
13 -19 17 -21 5z"/>
<path d="M979 803 c0 -5 -2 -15 -4 -24 -1 -9 1 -23 6 -30 8 -12 10 -12 18 0 7
11 9 11 14 0 8 -21 26 9 21 34 -5 28 -14 34 -24 17 -7 -10 -10 -11 -10 -2 0
13 -19 17 -21 5z"/>
<path d="M1059 803 c0 -5 -2 -15 -4 -24 -1 -9 1 -23 6 -30 8 -12 10 -12 18 0
7 11 9 11 14 0 8 -21 26 9 21 34 -5 28 -14 34 -24 17 -7 -10 -10 -11 -10 -2 0
13 -19 17 -21 5z"/>
<path d="M1139 803 c0 -5 -2 -15 -4 -24 -1 -9 1 -23 6 -30 8 -12 10 -12 18 0
7 11 9 11 14 0 8 -21 26 9 21 34 -5 28 -14 34 -24 17 -7 -10 -10 -11 -10 -2 0
13 -19 17 -21 5z"/>
<path d="M1219 803 c0 -5 -2 -15 -4 -24 -1 -9 1 -23 6 -30 8 -12 10 -12 18 0
7 11 9 11 14 0 8 -21 26 9 21 34 -5 28 -14 34 -24 17 -7 -10 -10 -11 -10 -2 0
13 -19 17 -21 5z"/>
<path d="M346 789 c2 -4 -2 -10 -8 -12 -10 -4 -10 -6 0 -6 7 -1 11 -5 8 -9 -3
-5 8 -9 24 -9 16 0 27 4 24 8 -2 4 2 10 8 12 10 4 10 6 0 6 -7 1 -11 5 -8 9 3
5 -8 9 -24 9 -16 0 -27 -4 -24 -8z"/>
<path d="M1306 789 c2 -4 -2 -10 -8 -12 -10 -4 -10 -6 0 -6 7 -1 11 -5 8 -9
-3 -5 8 -9 24 -9 16 0 27 4 24 8 -2 4 2 10 8 12 10 4 10 6 0 6 -7 1 -11 5 -8
9 3 5 -8 9 -24 9 -16 0 -27 -4 -24 -8z"/>
<path d="M339 723 c0 -5 -2 -15 -4 -24 -1 -9 1 -23 6 -30 8 -12 10 -12 18 0 7
11 9 11 14 0 8 -21 26 9 21 34 -5 28 -14 34 -24 17 -7 -10 -10 -11 -10 -2 0
13 -19 17 -21 5z"/>
<path d="M419 723 c0 -5 -2 -15 -4 -24 -1 -9 1 -23 6 -30 8 -12 10 -12 18 0 7
11 9 11 14 0 8 -21 26 9 21 34 -5 28 -14 34 -24 17 -7 -10 -10 -11 -10 -2 0
13 -19 17 -21 5z"/>
<path d="M499 723 c0 -5 -2 -15 -4 -24 -1 -9 1 -23 6 -30 8 -12 10 -12 18 0 7
11 9 11 14 0 8 -21 26 9 21 34 -5 28 -14 34 -24 17 -7 -10 -10 -11 -10 -2 0
13 -19 17 -21 5z"/>
<path d="M579 723 c0 -5 -2 -15 -4 -24 -1 -9 1 -23 6 -30 8 -12 10 -12 18 0 7
11 9 11 14 0 8 -21 26 9 21 34 -5 28 -14 34 -24 17 -7 -10 -10 -11 -10 -2 0
13 -19 17 -21 5z"/>
<path d="M659 723 c0 -5 -2 -15 -4 -24 -1 -9 1 -23 6 -30 8 -12 10 -12 18 0 7
11 9 11 14 0 8 -21 26 9 21 34 -5 28 -14 34 -24 17 -7 -10 -10 -11 -10 -2 0
13 -19 17 -21 5z"/>
<path d="M739 723 c0 -5 -2 -15 -4 -24 -1 -9 1 -23 6 -30 8 -12 10 -12 18 0 7
11 9 11 14 0 8 -21 26 9 21 34 -5 28 -14 34 -24 17 -7 -10 -10 -11 -10 -2 0
13 -19 17 -21 5z"/>
<path d="M819 723 c0 -5 -2 -15 -4 -24 -1 -9 1 -23 6 -30 8 -12 10 -12 18 0 7
11 9 11 14 0 8 -21 26 9 21 34 -5 28 -14 34 -24 17 -7 -10 -10 -11 -10 -2 0
13 -19 17 -21 5z"/>
<path d="M899 723 c0 -5 -2 -15 -4 -24 -1 -9 1 -23 6 -30 8 -12 10 -12 18 0 7
11 9 11 14 0 8 -21 26 9 21 34 -5 28 -14 34 -24 17 -7 -10 -10 -11 -10 -2 0
13 -19 17 -21 5z"/>
<path d="M979 723 c0 -5 -2 -15 -4 -24 -1 -9 1 -23 6 -30 8 -12 10 -12 18 0 7
11 9 11 14 0 8 -21 26 9 21 34 -5 28 -14 34 -24 17 -7 -10 -10 -11 -10 -2 0
13 -19 17 -21 5z"/>
<path d="M1059 723 c0 -5 -2 -15 -4 -24 -1 -9 1 -23 6 -30 8 -12 10 -12 18 0
7 11 9 11 14 0 8 -21 26 9 21 34 -5 28 -14 34 -24 17 -7 -10 -10 -11 -10 -2 0
13 -19 17 -21 5z"/>
<path d="M1139 723 c0 -5 -2 -15 -4 -24 -1 -9 1 -23 6 -30 8 -12 10 -12 18 0
7 11 9 11 14 0 8 -21 26 9 21 34 -5 28 -14 34 -24 17 -7 -10 -10 -11 -10 -2 0
13 -19 17 -21 5z"/>
<path d="M1219 723 c0 -5 -2 -15 -4 -24 -1 -9 1 -23 6 -30 8 -12 10 -12 18 0
7 11 9 11 14 0 8 -21 26 9 21 34 -5 28 -14 34 -24 17 -7 -10 -10 -11 -10 -2 0
13 -19 17 -21 5z"/>
<path d="M1306 709 c2 -4 -2 -10 -8 -12 -10 -4 -10 -6 0 -6 7 -1 11 -5 8 -9
-3 -5 8 -9 24 -9 16 0 27 4 24 8 -2 4 2 10 8 12 10 4 10 6 0 6 -7 1 -11 5 -8
9 3 5 -8 9 -24 9 -16 0 -27 -4 -24 -8z"/>
<path d="M339 643 c0 -5 -2 -15 -4 -24 -1 -9 1 -23 6 -30 8 -12 10 -12 18 0 7
11 9 11 14 0 8 -21 26 9 21 34 -5 28 -14 34 -24 17 -7 -10 -10 -11 -10 -2 0
13 -19 17 -21 5z"/>
<path d="M419 643 c0 -5 -2 -15 -4 -24 -1 -9 1 -23 6 -30 8 -12 10 -12 18 0 7
11 9 11 14 0 8 -21 26 9 21 34 -5 28 -14 34 -24 17 -7 -10 -10 -11 -10 -2 0
13 -19 17 -21 5z"/>
<path d="M499 643 c0 -5 -2 -15 -4 -24 -1 -9 1 -23 6 -30 8 -12 10 -12 18 0 7
11 9 11 14 0 8 -21 26 9 21 34 -5 28 -14 34 -24 17 -7 -10 -10 -11 -10 -2 0
13 -19 17 -21 5z"/>
<path d="M579 643 c0 -5 -2 -15 -4 -24 -1 -9 1 -23 6 -30 8 -12 10 -12 18 0 7
11 9 11 14 0 8 -21 26 9 21 34 -5 28 -14 34 -24 17 -7 -10 -10 -11 -10 -2 0
13 -19 17 -21 5z"/>
<path d="M659 643 c0 -5 -2 -15 -4 -24 -1 -9 1 -23 6 -30 8 -12 10 -12 18 0 7
11 9 11 14 0 8 -21 26 9 21 34 -5 28 -14 34 -24 17 -7 -10 -10 -11 -10 -2 0
13 -19 17 -21 5z"/>
<path d="M739 643 c0 -5 -2 -15 -4 -24 -1 -9 1 -23 6 -30 8 -12 10 -12 18 0 7
11 9 11 14 0 8 -21 26 9 21 34 -5 28 -14 34 -24 17 -7 -10 -10 -11 -10 -2 0
13 -19 17 -21 5z"/>
<path d="M819 643 c0 -5 -2 -15 -4 -24 -1 -9 1 -23 6 -30 8 -12 10 -12 18 0 7
11 9 11 14 0 8 -21 26 9 21 34 -5 28 -14 34 -24 17 -7 -10 -10 -11 -10 -2 0
13 -19 17 -21 5z"/>
<path d="M899 643 c0 -5 -2 -15 -4 -24 -1 -9 1 -23 6 -30 8 -12 10 -12 18 0 7
11 9 11 14 0 8 -21 26 9 21 34 -5 28 -14 34 -24 17 -7 -10 -10 -11 -10 -2 0
13 -19 17 -21 5z"/>
<path d="M979 643 c0 -5 -2 -15 -4 -24 -1 -9 1 -23 6 -30 8 -12 10 -12 18 0 7
11 9 11 14 0 8 -21 26 9 21 34 -5 28 -14 34 -24 17 -7 -10 -10 -11 -10 -2 0
13 -19 17 -21 5z"/>
<path d="M1059 643 c0 -5 -2 -15 -4 -24 -1 -9 1 -23 6 -30 8 -12 10 -12 18 0
7 11 9 11 14 0 8 -21 26 9 21 34 -5 28 -14 34 -24 17 -7 -10 -10 -11 -10 -2 0
13 -19 17 -21 5z"/>
<path d="M1139 643 c0 -5 -2 -15 -4 -24 -1 -9 1 -23 6 -30 8 -12 10 -12 18 0
7 11 9 11 14 0 8 -21 26 9 21 34 -5 28 -14 34 -24 17 -7 -10 -10 -11 -10 -2 0
13 -19 17 -21 5z"/>
<path d="M1219 643 c0 -5 -2 -15 -4 -24 -1 -9 1 -23 6 -30 8 -12 10 -12 18 0
7 11 9 11 14 0 8 -21 26 9 21 34 -5 28 -14 34 -24 17 -7 -10 -10 -11 -10 -2 0
13 -19 17 -21 5z"/>
<path d="M1290 630 c0 -5 5 -10 10 -10 6 0 10 5 10 10 0 6 -4 10 -10 10 -5 0
-10 -4 -10 -10z"/>
<path d="M1315 610 c-16 -16 -24 -30 -19 -30 6 0 23 14 39 30 16 17 24 30 19
30 -6 0 -23 -13 -39 -30z"/>
<path d="M1386 629 c2 -4 -2 -10 -8 -12 -10 -4 -10 -6 0 -6 7 -1 11 -5 8 -9
-3 -5 8 -9 24 -9 16 0 27 4 24 8 -2 4 2 10 8 12 10 4 10 6 0 6 -7 1 -11 5 -8
9 3 5 -8 9 -24 9 -16 0 -27 -4 -24 -8z"/>
<path d="M1340 590 c0 -5 5 -10 10 -10 6 0 10 5 10 10 0 6 -4 10 -10 10 -5 0
-10 -4 -10 -10z"/>
<path d="M339 563 c0 -5 -2 -15 -4 -24 -1 -9 1 -23 6 -30 8 -12 10 -12 18 0 7
11 9 11 14 0 8 -21 26 9 21 34 -5 28 -14 34 -24 17 -7 -10 -10 -11 -10 -2 0
13 -19 17 -21 5z"/>
<path d="M419 563 c0 -5 -2 -15 -4 -24 -1 -9 1 -23 6 -30 8 -12 10 -12 18 0 7
11 9 11 14 0 8 -21 26 9 21 34 -5 28 -14 34 -24 17 -7 -10 -10 -11 -10 -2 0
13 -19 17 -21 5z"/>
<path d="M499 563 c0 -5 -2 -15 -4 -24 -1 -9 1 -23 6 -30 8 -12 10 -12 18 0 7
11 9 11 14 0 8 -21 26 9 21 34 -5 28 -14 34 -24 17 -7 -10 -10 -11 -10 -2 0
13 -19 17 -21 5z"/>
<path d="M579 563 c0 -5 -2 -15 -4 -24 -1 -9 1 -23 6 -30 8 -12 10 -12 18 0 7
11 9 11 14 0 8 -21 26 9 21 34 -5 28 -14 34 -24 17 -7 -10 -10 -11 -10 -2 0
13 -19 17 -21 5z"/>
<path d="M974 556 c-3 -9 -10 -16 -16 -16 -5 0 -7 4 -4 8 3 5 -8 9 -24 9 -16
0 -27 -4 -24 -9 3 -4 -4 -8 -16 -8 -12 0 -19 4 -16 8 3 5 -8 9 -24 9 -16 0
-27 -4 -24 -9 3 -4 -4 -8 -16 -8 -12 0 -19 4 -16 8 3 5 -8 9 -24 9 -16 0 -27
-4 -24 -9 3 -4 -4 -8 -16 -8 -12 0 -19 4 -16 8 3 5 -8 9 -24 9 -16 0 -27 -4
-24 -8 2 -4 -2 -10 -8 -12 -10 -4 -10 -6 0 -6 7 -1 11 -5 8 -9 -3 -5 8 -9 24
-9 16 0 27 4 24 9 -3 4 4 8 16 8 12 0 19 -4 16 -8 -3 -5 8 -9 24 -9 16 0 27 4
24 9 -3 4 4 8 16 8 12 0 19 -4 16 -8 -3 -5 8 -9 24 -9 16 0 27 4 24 9 -3 4 4
8 16 8 12 0 19 -4 16 -8 -3 -5 8 -9 24 -9 16 0 27 4 24 9 -3 4 -1 8 4 8 6 0
12 -7 16 -15 3 -8 16 -14 28 -14 17 1 18 2 6 6 -11 3 -18 14 -18 29 0 16 5 24
18 23 10 0 12 -3 5 -6 -21 -8 -15 -33 8 -33 15 0 20 5 17 23 -4 27 -55 38 -64
13z"/>
<path d="M1059 563 c0 -5 -2 -15 -4 -24 -1 -9 1 -23 6 -30 8 -12 10 -12 18 0
7 11 9 11 14 0 8 -21 26 9 21 34 -5 28 -14 34 -24 17 -7 -10 -10 -11 -10 -2 0
13 -19 17 -21 5z"/>
<path d="M1139 563 c0 -5 -2 -15 -4 -24 -1 -9 1 -23 6 -30 8 -12 10 -12 18 0
7 11 9 11 14 0 8 -21 26 9 21 34 -5 28 -14 34 -24 17 -7 -10 -10 -11 -10 -2 0
13 -19 17 -21 5z"/>
<path d="M1219 563 c0 -5 -2 -15 -4 -24 -1 -9 1 -23 6 -30 8 -12 10 -12 18 0
7 11 9 11 14 0 8 -21 26 9 21 34 -5 28 -14 34 -24 17 -7 -10 -10 -11 -10 -2 0
13 -19 17 -21 5z"/>
<path d="M1290 550 c0 -5 5 -10 10 -10 6 0 10 5 10 10 0 6 -4 10 -10 10 -5 0
-10 -4 -10 -10z"/>
<path d="M1315 530 c-16 -16 -24 -30 -19 -30 6 0 23 14 39 30 16 17 24 30 19
30 -6 0 -23 -13 -39 -30z"/>
<path d="M1386 549 c2 -4 -2 -10 -8 -12 -10 -4 -10 -6 0 -6 7 -1 11 -5 8 -9
-3 -5 8 -9 24 -9 16 0 27 4 24 8 -2 4 2 10 8 12 10 4 10 6 0 6 -7 1 -11 5 -8
9 3 5 -8 9 -24 9 -16 0 -27 -4 -24 -8z"/>
<path d="M1340 510 c0 -5 5 -10 10 -10 6 0 10 5 10 10 0 6 -4 10 -10 10 -5 0
-10 -4 -10 -10z"/>
<path d="M339 483 c0 -5 -2 -15 -4 -24 -1 -9 1 -23 6 -30 8 -12 10 -12 18 0 7
11 9 11 14 0 8 -21 26 9 21 34 -5 28 -14 34 -24 17 -7 -10 -10 -11 -10 -2 0
13 -19 17 -21 5z"/>
<path d="M419 483 c0 -5 -2 -15 -4 -24 -1 -9 1 -23 6 -30 8 -12 10 -12 18 0 7
11 9 11 14 0 8 -21 26 9 21 34 -5 28 -14 34 -24 17 -7 -10 -10 -11 -10 -2 0
13 -19 17 -21 5z"/>
<path d="M499 483 c0 -5 -2 -15 -4 -24 -1 -9 1 -23 6 -30 8 -12 10 -12 18 0 7
11 9 11 14 0 8 -21 26 9 21 34 -5 28 -14 34 -24 17 -7 -10 -10 -11 -10 -2 0
13 -19 17 -21 5z"/>
<path d="M579 483 c0 -5 -2 -15 -4 -24 -1 -9 1 -23 6 -30 8 -12 10 -12 18 0 7
11 9 11 14 0 8 -21 26 9 21 34 -5 28 -14 34 -24 17 -7 -10 -10 -11 -10 -2 0
13 -19 17 -21 5z"/>
<path d="M974 476 c-11 -28 0 -51 26 -53 15 -1 18 0 8 3 -11 3 -18 15 -18 30
0 16 5 24 18 23 10 0 12 -3 5 -6 -21 -8 -15 -33 8 -33 15 0 20 5 17 23 -4 27
-55 38 -64 13z"/>
<path d="M1059 483 c0 -5 -2 -15 -4 -24 -1 -9 1 -23 6 -30 8 -12 10 -12 18 0
7 11 9 11 14 0 8 -21 26 9 21 34 -5 28 -14 34 -24 17 -7 -10 -10 -11 -10 -2 0
13 -19 17 -21 5z"/>
<path d="M1139 483 c0 -5 -2 -15 -4 -24 -1 -9 1 -23 6 -30 8 -12 10 -12 18 0
7 11 9 11 14 0 8 -21 26 9 21 34 -5 28 -14 34 -24 17 -7 -10 -10 -11 -10 -2 0
13 -19 17 -21 5z"/>
<path d="M1219 483 c0 -5 -2 -15 -4 -24 -1 -9 1 -23 6 -30 8 -12 10 -12 18 0
7 11 9 11 14 0 8 -21 26 9 21 34 -5 28 -14 34 -24 17 -7 -10 -10 -11 -10 -2 0
13 -19 17 -21 5z"/>
<path d="M666 469 c2 -4 -2 -10 -8 -12 -10 -4 -10 -6 0 -6 7 -1 11 -5 8 -9 -3
-5 8 -9 24 -9 16 0 27 4 24 9 -3 4 4 8 16 8 12 0 19 -4 16 -8 -3 -5 8 -9 24
-9 16 0 27 4 24 8 -2 4 2 10 8 12 10 4 10 6 0 6 -7 1 -11 5 -8 9 3 5 -8 9 -24
9 -16 0 -27 -4 -24 -9 3 -4 -4 -8 -16 -8 -12 0 -19 4 -16 8 3 5 -8 9 -24 9
-16 0 -27 -4 -24 -8z"/>
<path d="M1290 470 c0 -5 5 -10 10 -10 6 0 10 5 10 10 0 6 -4 10 -10 10 -5 0
-10 -4 -10 -10z"/>
<path d="M1315 450 c-16 -16 -24 -30 -19 -30 6 0 23 14 39 30 16 17 24 30 19
30 -6 0 -23 -13 -39 -30z"/>
<path d="M1386 469 c2 -4 -2 -10 -8 -12 -10 -4 -10 -6 0 -6 7 -1 11 -5 8 -9
-3 -5 7 -9 22 -9 22 0 28 5 28 22 0 17 -6 22 -28 22 -15 0 -25 -4 -22 -8z"/>
<path d="M1340 430 c0 -5 5 -10 10 -10 6 0 10 5 10 10 0 6 -4 10 -10 10 -5 0
-10 -4 -10 -10z"/>
<path d="M334 396 c-11 -28 0 -51 26 -53 15 -1 18 0 8 3 -11 3 -18 15 -18 30
0 16 5 24 18 23 10 0 12 -3 5 -6 -21 -8 -15 -33 8 -33 15 0 20 5 17 23 -4 27
-55 38 -64 13z"/>
<path d="M419 403 c0 -5 -2 -15 -4 -24 -1 -9 1 -23 6 -30 8 -12 10 -12 18 0 7
11 9 11 14 0 8 -21 26 9 21 34 -5 28 -14 34 -24 17 -7 -10 -10 -11 -10 -2 0
13 -19 17 -21 5z"/>
<path d="M499 403 c0 -5 -2 -15 -4 -24 -1 -9 1 -23 6 -30 8 -12 10 -12 18 0 7
11 9 11 14 0 8 -21 26 9 21 34 -5 28 -14 34 -24 17 -7 -10 -10 -11 -10 -2 0
13 -19 17 -21 5z"/>
<path d="M579 403 c0 -5 -2 -15 -4 -24 -1 -9 1 -23 6 -30 8 -12 10 -12 18 0 7
11 9 11 14 0 8 -21 26 9 21 34 -5 28 -14 34 -24 17 -7 -10 -10 -11 -10 -2 0
13 -19 17 -21 5z"/>
<path d="M1059 403 c0 -5 -2 -15 -4 -24 -1 -9 1 -23 6 -30 8 -12 10 -12 18 0
7 11 9 11 14 0 8 -21 26 9 21 34 -5 28 -14 34 -24 17 -7 -10 -10 -11 -10 -2 0
13 -19 17 -21 5z"/>
<path d="M1139 403 c0 -5 -2 -15 -4 -24 -1 -9 1 -23 6 -30 8 -12 10 -12 18 0
7 11 9 11 14 0 8 -21 26 9 21 34 -5 28 -14 34 -24 17 -7 -10 -10 -11 -10 -2 0
13 -19 17 -21 5z"/>
<path d="M1219 403 c0 -5 -2 -15 -4 -24 -1 -9 1 -23 6 -30 8 -12 10 -12 18 0
7 11 9 11 14 0 8 -21 26 9 21 34 -5 28 -14 34 -24 17 -7 -10 -10 -11 -10 -2 0
13 -19 17 -21 5z"/>
<path d="M666 389 c2 -4 -2 -10 -8 -12 -10 -4 -10 -6 0 -6 7 -1 11 -5 8 -9 -3
-5 8 -9 24 -9 16 0 27 4 24 8 -2 4 2 10 8 12 10 4 10 6 0 6 -7 1 -11 5 -8 9 3
5 -8 9 -24 9 -16 0 -27 -4 -24 -8z"/>
<path d="M1306 389 c2 -4 -2 -10 -8 -12 -10 -4 -10 -6 0 -6 7 -1 11 -5 8 -9
-3 -5 8 -9 24 -9 16 0 27 4 24 9 -3 4 4 8 16 8 12 0 19 -4 16 -8 -3 -5 8 -9
24 -9 16 0 27 4 24 8 -2 4 4 10 13 12 17 4 17 5 0 6 -10 0 -16 5 -13 9 3 5 -8
9 -24 9 -16 0 -27 -4 -24 -9 3 -4 -4 -8 -16 -8 -12 0 -19 4 -16 8 3 5 -8 9
-24 9 -16 0 -27 -4 -24 -8z"/>
<path d="M419 323 c0 -5 -2 -15 -4 -24 -1 -9 1 -23 6 -30 8 -12 10 -12 18 0 7
11 9 11 14 0 8 -21 26 9 21 34 -5 28 -14 34 -24 17 -7 -10 -10 -11 -10 -2 0
13 -19 17 -21 5z"/>
<path d="M499 323 c0 -5 -2 -15 -4 -24 -1 -9 1 -23 6 -30 8 -12 10 -12 18 0 7
11 9 11 14 0 8 -21 26 9 21 34 -5 28 -14 34 -24 17 -7 -10 -10 -11 -10 -2 0
13 -19 17 -21 5z"/>
<path d="M574 316 c-11 -28 0 -51 26 -53 15 -1 18 0 8 3 -11 3 -18 15 -18 30
0 16 5 24 18 23 10 0 12 -3 5 -6 -21 -8 -15 -33 8 -33 15 0 20 5 17 23 -4 27
-55 38 -64 13z"/>
<path d="M1059 323 c0 -5 -2 -15 -4 -24 -1 -9 1 -23 6 -30 8 -12 10 -12 18 0
7 11 9 11 14 0 8 -21 26 9 21 34 -5 28 -14 34 -24 17 -7 -10 -10 -11 -10 -2 0
13 -19 17 -21 5z"/>
<path d="M1139 323 c0 -5 -2 -15 -4 -24 -1 -9 1 -23 6 -30 8 -12 10 -12 18 0
7 11 9 11 14 0 8 -21 26 9 21 34 -5 28 -14 34 -24 17 -7 -10 -10 -11 -10 -2 0
13 -19 17 -21 5z"/>
<path d="M1219 323 c0 -5 -2 -15 -4 -24 -1 -9 1 -23 6 -30 8 -12 10 -12 18 0
7 11 9 11 14 0 8 -21 26 9 21 34 -5 28 -14 34 -24 17 -7 -10 -10 -11 -10 -2 0
13 -19 17 -21 5z"/>
<path d="M666 309 c2 -4 -2 -10 -8 -12 -10 -4 -10 -6 0 -6 7 -1 11 -5 8 -9 -3
-5 8 -9 24 -9 16 0 27 4 24 8 -2 4 2 10 8 12 10 4 10 6 0 6 -7 1 -11 5 -8 9 3
5 -8 9 -24 9 -16 0 -27 -4 -24 -8z"/>
<path d="M1306 309 c2 -4 -2 -10 -8 -12 -10 -4 -10 -6 0 -6 7 -1 11 -5 8 -9
-3 -5 8 -9 24 -9 16 0 27 4 24 9 -3 4 4 8 16 8 12 0 19 -4 16 -8 -3 -5 8 -9
24 -9 16 0 27 4 24 8 -2 4 2 10 8 12 10 4 10 6 0 6 -7 1 -11 5 -8 9 3 5 -8 9
-24 9 -16 0 -27 -4 -24 -9 3 -4 -4 -8 -16 -8 -12 0 -19 4 -16 8 3 5 -8 9 -24
9 -16 0 -27 -4 -24 -8z"/>
<path d="M506 229 c2 -4 -2 -10 -8 -12 -10 -4 -10 -6 0 -6 7 -1 11 -5 8 -9 -3
-5 8 -9 24 -9 16 0 27 4 24 9 -3 4 4 8 16 8 12 0 19 -4 16 -8 -3 -5 8 -9 24
-9 16 0 27 4 24 9 -3 4 4 8 16 8 12 0 19 -4 16 -8 -3 -5 8 -9 24 -9 16 0 27 4
24 8 -2 4 2 10 8 12 10 4 10 6 0 6 -7 1 -11 5 -8 9 3 5 -8 9 -24 9 -16 0 -27
-4 -24 -9 3 -4 -4 -8 -16 -8 -12 0 -19 4 -16 8 3 5 -8 9 -24 9 -16 0 -27 -4
-24 -9 3 -4 -4 -8 -16 -8 -12 0 -19 4 -16 8 3 5 -8 9 -24 9 -16 0 -27 -4 -24
-8z"/>
<path d="M1146 229 c2 -4 -2 -10 -8 -12 -10 -4 -10 -6 0 -6 7 -1 11 -5 8 -9
-3 -5 8 -9 24 -9 16 0 27 4 24 9 -3 4 4 8 16 8 12 0 19 -4 16 -8 -3 -5 8 -9
24 -9 16 0 27 4 24 9 -3 4 4 8 16 8 12 0 19 -4 16 -8 -3 -5 8 -9 24 -9 16 0
27 4 24 9 -3 4 4 8 16 8 12 0 19 -4 16 -8 -3 -5 8 -9 24 -9 16 0 27 4 24 8 -2
4 2 10 8 12 10 4 10 6 0 6 -7 1 -11 5 -8 9 3 5 -8 9 -24 9 -16 0 -27 -4 -24
-9 3 -4 -4 -8 -16 -8 -12 0 -19 4 -16 8 3 5 -8 9 -24 9 -16 0 -27 -4 -24 -9 3
-4 -4 -8 -16 -8 -12 0 -19 4 -16 8 3 5 -8 9 -24 9 -16 0 -27 -4 -24 -9 3 -4
-4 -8 -16 -8 -12 0 -19 4 -16 8 3 5 -8 9 -24 9 -16 0 -27 -4 -24 -8z"/>
<path d="M586 149 c2 -4 -2 -10 -8 -12 -10 -4 -10 -6 0 -6 7 -1 11 -5 8 -9 -3
-5 8 -9 24 -9 16 0 27 4 24 9 -3 4 4 8 16 8 12 0 19 -4 16 -8 -3 -5 8 -9 24
-9 16 0 27 4 24 8 -2 4 2 10 8 12 10 4 10 6 0 6 -7 1 -11 5 -8 9 3 5 -8 9 -24
9 -16 0 -27 -4 -24 -9 3 -4 -4 -8 -16 -8 -12 0 -19 4 -16 8 3 5 -8 9 -24 9
-16 0 -27 -4 -24 -8z"/>
<path d="M1226 149 c2 -4 -2 -10 -8 -12 -10 -4 -10 -6 0 -6 7 -1 11 -5 8 -9
-3 -5 8 -9 24 -9 16 0 27 4 24 9 -3 4 4 8 16 8 12 0 19 -4 16 -8 -3 -5 8 -9
24 -9 16 0 27 4 24 8 -2 4 2 10 8 12 10 4 10 6 0 6 -7 1 -11 5 -8 9 3 5 -8 9
-24 9 -16 0 -27 -4 -24 -9 3 -4 -4 -8 -16 -8 -12 0 -19 4 -16 8 3 5 -8 9 -24
9 -16 0 -27 -4 -24 -8z"/>
</g>
</svg>
